<?xml version="1.0" ?><svg id="Layer_1" style="enable-background:new 0 0 137.3 139.3;" version="1.1" viewBox="0 0 137.3 139.3" xml:space="preserve" xmlns="http://www.w3.org/2000/svg" xmlns:xlink="http://www.w3.org/1999/xlink"><style type="text/css">
	.st0{fill:#2C8AAA;}
	.st1{opacity:0.19;clip-path:url(#XMLID_39_);fill:#070808;}
	.st2{fill:#FFFFFF;}
</style><g id="XMLID_2813_"><g id="XMLID_2814_"><circle class="st0" cx="69" cy="69.6" id="XMLID_2818_" r="66.2"/><g id="XMLID_2815_"><defs><circle cx="69.2" cy="69.6" id="XMLID_2816_" r="66.2"/></defs><clipPath id="XMLID_39_"><use style="overflow:visible;" xlink:href="#XMLID_2816_"/></clipPath><polygon class="st1" id="XMLID_2817_" points="90.9,35.9 143.7,68.3 134.4,135.8 89.7,133.9 36,102.3 55.3,98.1 29.7,83.7    "/></g></g></g><path class="st2" d="M25.8,66c0,0,2-7.6,11.2-8.8c0,0,0.5-18.5,15.5-17l9.2-0.1c0,0,10.5-14.5,25.2-6.5  c0,0,14.5,5.7,13,22.6c0,0,14.3,2.7,13.9,14.8c0,0,0,13.7-11.7,17H37.1C37.1,88,20.4,83.4,25.8,66z" id="XMLID_2838_"/><path class="st2" d="M75.1,98c-0.6-2.1-2.2-3.7-4.3-4.2V88h-3.1v5.9L67.5,94c-1.9,0.6-3.4,2.2-3.9,4.1H36v4.2h27.7  l0.6,0.3c1,1.7,2.9,2.9,5,2.9l0,0l0,0c0,0,0,0,0,0c2.3,0,4.3-1.3,5.3-3.2h27.8V98H75.1z M69.2,102.5c-1.6,0-2.9-1.3-2.9-2.9  c0-1.6,1.3-2.9,2.9-2.9c1.6,0,2.9,1.3,2.9,2.9C72.1,101.2,70.8,102.5,69.2,102.5z" id="XMLID_2827_"/></svg>